G04 #@! TF.FileFunction,Soldermask,Top*
%FSLAX46Y46*%
G04 Gerber Fmt 4.6, Leading zero omitted, Abs format (unit mm)*
G04 Created by KiCad (PCBNEW 4.0.7) date Wed Apr  4 13:04:03 2018*
%MOMM*%
%LPD*%
G01*
G04 APERTURE LIST*
%ADD10C,0.100000*%
%ADD11R,1.300000X0.900000*%
%ADD12R,1.150000X1.600000*%
%ADD13R,2.900000X2.400000*%
%ADD14R,1.200000X1.150000*%
%ADD15R,2.100000X2.100000*%
%ADD16O,2.100000X2.100000*%
%ADD17R,0.900000X1.300000*%
%ADD18O,2.900000X1.300000*%
%ADD19O,1.300000X2.900000*%
%ADD20R,6.400000X6.400000*%
%ADD21C,3.900000*%
%ADD22R,1.600000X1.150000*%
%ADD23R,4.200000X2.400000*%
%ADD24R,1.900000X2.400000*%
%ADD25R,2.100000X1.300000*%
%ADD26R,1.500000X1.200000*%
%ADD27R,1.300000X2.100000*%
%ADD28R,1.200000X1.500000*%
G04 APERTURE END LIST*
D10*
D11*
X146939000Y-92660600D03*
X146939000Y-91160600D03*
D12*
X147650200Y-88529200D03*
X147650200Y-86629200D03*
D13*
X151244300Y-89376000D03*
X151244300Y-85376000D03*
D14*
X147332000Y-82308700D03*
X148832000Y-82308700D03*
D15*
X119418100Y-91338400D03*
D16*
X119418100Y-88798400D03*
X119418100Y-86258400D03*
D15*
X119380000Y-63500000D03*
D16*
X119380000Y-66040000D03*
X119380000Y-68580000D03*
X119380000Y-71120000D03*
X119380000Y-73660000D03*
X119380000Y-76200000D03*
X119380000Y-78740000D03*
X119380000Y-81280000D03*
D15*
X151638000Y-63500000D03*
D16*
X151638000Y-66040000D03*
X151638000Y-68580000D03*
X151638000Y-71120000D03*
X151638000Y-73660000D03*
X151638000Y-76200000D03*
X151638000Y-78740000D03*
X151638000Y-81280000D03*
D17*
X148756500Y-84010500D03*
X147256500Y-84010500D03*
D11*
X124485400Y-70066600D03*
X124485400Y-68566600D03*
X126784100Y-67245800D03*
X126784100Y-68745800D03*
D18*
X126890000Y-87800000D03*
X126890000Y-86530000D03*
X126890000Y-85260000D03*
X126890000Y-83990000D03*
X126890000Y-82720000D03*
X126890000Y-81450000D03*
X126890000Y-80180000D03*
X126890000Y-78910000D03*
X126890000Y-77640000D03*
X126890000Y-76370000D03*
X126890000Y-75100000D03*
X126890000Y-73830000D03*
X126890000Y-72560000D03*
X126890000Y-71290000D03*
D19*
X130175000Y-69800000D03*
X131445000Y-69800000D03*
X132715000Y-69800000D03*
X133985000Y-69800000D03*
X135255000Y-69800000D03*
X136525000Y-69800000D03*
X137795000Y-69800000D03*
X139065000Y-69800000D03*
X140335000Y-69800000D03*
X141605000Y-69800000D03*
D18*
X144890000Y-71290000D03*
X144890000Y-72560000D03*
X144890000Y-73830000D03*
X144890000Y-75100000D03*
X144890000Y-76370000D03*
X144890000Y-77640000D03*
X144890000Y-78910000D03*
X144890000Y-80180000D03*
X144890000Y-81450000D03*
X144890000Y-82720000D03*
X144890000Y-83990000D03*
X144890000Y-85260000D03*
X144890000Y-86530000D03*
X144890000Y-87800000D03*
D20*
X136190000Y-80100000D03*
D21*
X136144000Y-80010000D03*
D15*
X130670300Y-62865000D03*
D16*
X130670300Y-65405000D03*
X133210300Y-62865000D03*
X133210300Y-65405000D03*
X135750300Y-62865000D03*
X135750300Y-65405000D03*
X138290300Y-62865000D03*
X138290300Y-65405000D03*
X140830300Y-62865000D03*
X140830300Y-65405000D03*
D22*
X147373300Y-69342000D03*
X149273300Y-69342000D03*
X143436300Y-68834000D03*
X145336300Y-68834000D03*
D23*
X146291300Y-60325000D03*
D24*
X146291300Y-66625000D03*
X148591300Y-66625000D03*
X143991300Y-66625000D03*
D25*
X125076800Y-63705000D03*
X125076800Y-67105000D03*
D26*
X123436800Y-65405000D03*
D27*
X148617200Y-91928100D03*
X152017200Y-91928100D03*
D28*
X150317200Y-93568100D03*
M02*
