G04 #@! TF.FileFunction,Legend,Top*
%FSLAX46Y46*%
G04 Gerber Fmt 4.6, Leading zero omitted, Abs format (unit mm)*
G04 Created by KiCad (PCBNEW 4.0.7) date Wed Apr  4 13:04:03 2018*
%MOMM*%
%LPD*%
G01*
G04 APERTURE LIST*
%ADD10C,0.100000*%
%ADD11C,0.120000*%
%ADD12C,0.500000*%
%ADD13C,0.150000*%
G04 APERTURE END LIST*
D10*
D11*
X147619000Y-91410600D02*
X147619000Y-92410600D01*
X146259000Y-92410600D02*
X146259000Y-91410600D01*
X147050200Y-87929200D02*
X147050200Y-87229200D01*
X148250200Y-87229200D02*
X148250200Y-87929200D01*
X149764300Y-86376000D02*
X149764300Y-88376000D01*
X152724300Y-88376000D02*
X152724300Y-86376000D01*
X147732000Y-81708700D02*
X148432000Y-81708700D01*
X148432000Y-82908700D02*
X147732000Y-82908700D01*
X120748100Y-84928400D02*
X118088100Y-84928400D01*
X120748100Y-90068400D02*
X120748100Y-84928400D01*
X118088100Y-90068400D02*
X118088100Y-84928400D01*
X120748100Y-90068400D02*
X118088100Y-90068400D01*
X120748100Y-91338400D02*
X120748100Y-92668400D01*
X120748100Y-92668400D02*
X119418100Y-92668400D01*
X118050000Y-82610000D02*
X120710000Y-82610000D01*
X118050000Y-64770000D02*
X118050000Y-82610000D01*
X120710000Y-64770000D02*
X120710000Y-82610000D01*
X118050000Y-64770000D02*
X120710000Y-64770000D01*
X118050000Y-63500000D02*
X118050000Y-62170000D01*
X118050000Y-62170000D02*
X119380000Y-62170000D01*
X150308000Y-82610000D02*
X152968000Y-82610000D01*
X150308000Y-64770000D02*
X150308000Y-82610000D01*
X152968000Y-64770000D02*
X152968000Y-82610000D01*
X150308000Y-64770000D02*
X152968000Y-64770000D01*
X150308000Y-63500000D02*
X150308000Y-62170000D01*
X150308000Y-62170000D02*
X151638000Y-62170000D01*
X147506500Y-83330500D02*
X148506500Y-83330500D01*
X148506500Y-84690500D02*
X147506500Y-84690500D01*
X125165400Y-68816600D02*
X125165400Y-69816600D01*
X123805400Y-69816600D02*
X123805400Y-68816600D01*
X126104100Y-68495800D02*
X126104100Y-67495800D01*
X127464100Y-67495800D02*
X127464100Y-68495800D01*
D12*
X146079981Y-89154000D02*
G75*
G03X146079981Y-89154000I-283981J0D01*
G01*
D13*
X126890000Y-89300000D02*
X144890000Y-89300000D01*
X144890000Y-95300000D02*
X144890000Y-69800000D01*
X126890000Y-95300000D02*
X126890000Y-69800000D01*
X126890000Y-69800000D02*
X144890000Y-69800000D01*
X126890000Y-95300000D02*
X144890000Y-95300000D01*
X131930300Y-66735000D02*
X129360300Y-66735000D01*
X129360300Y-66735000D02*
X129360300Y-66745000D01*
D11*
X142160300Y-66735000D02*
X142160300Y-61535000D01*
X131940300Y-66735000D02*
X142160300Y-66735000D01*
X131970300Y-61535000D02*
X142160300Y-61535000D01*
X131970300Y-64145000D02*
X131970300Y-61545000D01*
X131940300Y-64135000D02*
X129340300Y-64135000D01*
X129350300Y-66755000D02*
X129350300Y-64155000D01*
X130670300Y-61565000D02*
X129340300Y-61565000D01*
X129340300Y-62895000D02*
X129340300Y-61565000D01*
X147973300Y-68742000D02*
X148673300Y-68742000D01*
X148673300Y-69942000D02*
X147973300Y-69942000D01*
X144036300Y-68234000D02*
X144736300Y-68234000D01*
X144736300Y-69434000D02*
X144036300Y-69434000D01*
X149701300Y-61565000D02*
X148441300Y-61565000D01*
X142881300Y-61565000D02*
X144141300Y-61565000D01*
X149701300Y-65325000D02*
X149701300Y-61565000D01*
X142881300Y-67575000D02*
X142881300Y-61565000D01*
X123686800Y-63755000D02*
X123686800Y-64755000D01*
X123976800Y-63755000D02*
X123686800Y-63755000D01*
X123686800Y-67055000D02*
X123686800Y-66055000D01*
X123686800Y-67055000D02*
X123976800Y-67055000D01*
X126186800Y-63755000D02*
X126476800Y-63755000D01*
X126476800Y-63755000D02*
X126476800Y-67055000D01*
X126476800Y-67055000D02*
X126186800Y-67055000D01*
X148667200Y-93318100D02*
X149667200Y-93318100D01*
X148667200Y-93028100D02*
X148667200Y-93318100D01*
X151967200Y-93318100D02*
X150967200Y-93318100D01*
X151967200Y-93318100D02*
X151967200Y-93028100D01*
X148667200Y-90818100D02*
X148667200Y-90528100D01*
X148667200Y-90528100D02*
X151967200Y-90528100D01*
X151967200Y-90528100D02*
X151967200Y-90818100D01*
D13*
X145941381Y-92077266D02*
X145465190Y-92410600D01*
X145941381Y-92648695D02*
X144941381Y-92648695D01*
X144941381Y-92267742D01*
X144989000Y-92172504D01*
X145036619Y-92124885D01*
X145131857Y-92077266D01*
X145274714Y-92077266D01*
X145369952Y-92124885D01*
X145417571Y-92172504D01*
X145465190Y-92267742D01*
X145465190Y-92648695D01*
X145941381Y-91124885D02*
X145941381Y-91696314D01*
X145941381Y-91410600D02*
X144941381Y-91410600D01*
X145084238Y-91505838D01*
X145179476Y-91601076D01*
X145227095Y-91696314D01*
X146757343Y-87745866D02*
X146804962Y-87793485D01*
X146852581Y-87936342D01*
X146852581Y-88031580D01*
X146804962Y-88174438D01*
X146709724Y-88269676D01*
X146614486Y-88317295D01*
X146424010Y-88364914D01*
X146281152Y-88364914D01*
X146090676Y-88317295D01*
X145995438Y-88269676D01*
X145900200Y-88174438D01*
X145852581Y-88031580D01*
X145852581Y-87936342D01*
X145900200Y-87793485D01*
X145947819Y-87745866D01*
X146852581Y-86793485D02*
X146852581Y-87364914D01*
X146852581Y-87079200D02*
X145852581Y-87079200D01*
X145995438Y-87174438D01*
X146090676Y-87269676D01*
X146138295Y-87364914D01*
X149351443Y-87542666D02*
X149399062Y-87590285D01*
X149446681Y-87733142D01*
X149446681Y-87828380D01*
X149399062Y-87971238D01*
X149303824Y-88066476D01*
X149208586Y-88114095D01*
X149018110Y-88161714D01*
X148875252Y-88161714D01*
X148684776Y-88114095D01*
X148589538Y-88066476D01*
X148494300Y-87971238D01*
X148446681Y-87828380D01*
X148446681Y-87733142D01*
X148494300Y-87590285D01*
X148541919Y-87542666D01*
X148541919Y-87161714D02*
X148494300Y-87114095D01*
X148446681Y-87018857D01*
X148446681Y-86780761D01*
X148494300Y-86685523D01*
X148541919Y-86637904D01*
X148637157Y-86590285D01*
X148732395Y-86590285D01*
X148875252Y-86637904D01*
X149446681Y-87209333D01*
X149446681Y-86590285D01*
X147915334Y-84165843D02*
X147867715Y-84213462D01*
X147724858Y-84261081D01*
X147629620Y-84261081D01*
X147486762Y-84213462D01*
X147391524Y-84118224D01*
X147343905Y-84022986D01*
X147296286Y-83832510D01*
X147296286Y-83689652D01*
X147343905Y-83499176D01*
X147391524Y-83403938D01*
X147486762Y-83308700D01*
X147629620Y-83261081D01*
X147724858Y-83261081D01*
X147867715Y-83308700D01*
X147915334Y-83356319D01*
X148820096Y-83261081D02*
X148343905Y-83261081D01*
X148296286Y-83737271D01*
X148343905Y-83689652D01*
X148439143Y-83642033D01*
X148677239Y-83642033D01*
X148772477Y-83689652D01*
X148820096Y-83737271D01*
X148867715Y-83832510D01*
X148867715Y-84070605D01*
X148820096Y-84165843D01*
X148772477Y-84213462D01*
X148677239Y-84261081D01*
X148439143Y-84261081D01*
X148343905Y-84213462D01*
X148296286Y-84165843D01*
X119084767Y-93120781D02*
X119084767Y-93835067D01*
X119037147Y-93977924D01*
X118941909Y-94073162D01*
X118799052Y-94120781D01*
X118703814Y-94120781D01*
X120084767Y-94120781D02*
X119513338Y-94120781D01*
X119799052Y-94120781D02*
X119799052Y-93120781D01*
X119703814Y-93263638D01*
X119608576Y-93358876D01*
X119513338Y-93406495D01*
X119046667Y-60622381D02*
X119046667Y-61336667D01*
X118999047Y-61479524D01*
X118903809Y-61574762D01*
X118760952Y-61622381D01*
X118665714Y-61622381D01*
X119475238Y-60717619D02*
X119522857Y-60670000D01*
X119618095Y-60622381D01*
X119856191Y-60622381D01*
X119951429Y-60670000D01*
X119999048Y-60717619D01*
X120046667Y-60812857D01*
X120046667Y-60908095D01*
X119999048Y-61050952D01*
X119427619Y-61622381D01*
X120046667Y-61622381D01*
X151304667Y-60622381D02*
X151304667Y-61336667D01*
X151257047Y-61479524D01*
X151161809Y-61574762D01*
X151018952Y-61622381D01*
X150923714Y-61622381D01*
X151685619Y-60622381D02*
X152304667Y-60622381D01*
X151971333Y-61003333D01*
X152114191Y-61003333D01*
X152209429Y-61050952D01*
X152257048Y-61098571D01*
X152304667Y-61193810D01*
X152304667Y-61431905D01*
X152257048Y-61527143D01*
X152209429Y-61574762D01*
X152114191Y-61622381D01*
X151828476Y-61622381D01*
X151733238Y-61574762D01*
X151685619Y-61527143D01*
X147839834Y-85912881D02*
X147506500Y-85436690D01*
X147268405Y-85912881D02*
X147268405Y-84912881D01*
X147649358Y-84912881D01*
X147744596Y-84960500D01*
X147792215Y-85008119D01*
X147839834Y-85103357D01*
X147839834Y-85246214D01*
X147792215Y-85341452D01*
X147744596Y-85389071D01*
X147649358Y-85436690D01*
X147268405Y-85436690D01*
X148220786Y-85008119D02*
X148268405Y-84960500D01*
X148363643Y-84912881D01*
X148601739Y-84912881D01*
X148696977Y-84960500D01*
X148744596Y-85008119D01*
X148792215Y-85103357D01*
X148792215Y-85198595D01*
X148744596Y-85341452D01*
X148173167Y-85912881D01*
X148792215Y-85912881D01*
X123487781Y-69483266D02*
X123011590Y-69816600D01*
X123487781Y-70054695D02*
X122487781Y-70054695D01*
X122487781Y-69673742D01*
X122535400Y-69578504D01*
X122583019Y-69530885D01*
X122678257Y-69483266D01*
X122821114Y-69483266D01*
X122916352Y-69530885D01*
X122963971Y-69578504D01*
X123011590Y-69673742D01*
X123011590Y-70054695D01*
X122487781Y-68626123D02*
X122487781Y-68816600D01*
X122535400Y-68911838D01*
X122583019Y-68959457D01*
X122725876Y-69054695D01*
X122916352Y-69102314D01*
X123297305Y-69102314D01*
X123392543Y-69054695D01*
X123440162Y-69007076D01*
X123487781Y-68911838D01*
X123487781Y-68721361D01*
X123440162Y-68626123D01*
X123392543Y-68578504D01*
X123297305Y-68530885D01*
X123059210Y-68530885D01*
X122963971Y-68578504D01*
X122916352Y-68626123D01*
X122868733Y-68721361D01*
X122868733Y-68911838D01*
X122916352Y-69007076D01*
X122963971Y-69054695D01*
X123059210Y-69102314D01*
X128686481Y-68162466D02*
X128210290Y-68495800D01*
X128686481Y-68733895D02*
X127686481Y-68733895D01*
X127686481Y-68352942D01*
X127734100Y-68257704D01*
X127781719Y-68210085D01*
X127876957Y-68162466D01*
X128019814Y-68162466D01*
X128115052Y-68210085D01*
X128162671Y-68257704D01*
X128210290Y-68352942D01*
X128210290Y-68733895D01*
X127686481Y-67829133D02*
X127686481Y-67162466D01*
X128686481Y-67591038D01*
X123571095Y-91019381D02*
X123571095Y-91828905D01*
X123618714Y-91924143D01*
X123666333Y-91971762D01*
X123761571Y-92019381D01*
X123952048Y-92019381D01*
X124047286Y-91971762D01*
X124094905Y-91924143D01*
X124142524Y-91828905D01*
X124142524Y-91019381D01*
X125142524Y-92019381D02*
X124571095Y-92019381D01*
X124856809Y-92019381D02*
X124856809Y-91019381D01*
X124761571Y-91162238D01*
X124666333Y-91257476D01*
X124571095Y-91305095D01*
X127792681Y-64468333D02*
X128506967Y-64468333D01*
X128649824Y-64515953D01*
X128745062Y-64611191D01*
X128792681Y-64754048D01*
X128792681Y-64849286D01*
X128126014Y-63563571D02*
X128792681Y-63563571D01*
X127745062Y-63801667D02*
X128459348Y-64039762D01*
X128459348Y-63420714D01*
X148156634Y-68449143D02*
X148109015Y-68496762D01*
X147966158Y-68544381D01*
X147870920Y-68544381D01*
X147728062Y-68496762D01*
X147632824Y-68401524D01*
X147585205Y-68306286D01*
X147537586Y-68115810D01*
X147537586Y-67972952D01*
X147585205Y-67782476D01*
X147632824Y-67687238D01*
X147728062Y-67592000D01*
X147870920Y-67544381D01*
X147966158Y-67544381D01*
X148109015Y-67592000D01*
X148156634Y-67639619D01*
X148489967Y-67544381D02*
X149109015Y-67544381D01*
X148775681Y-67925333D01*
X148918539Y-67925333D01*
X149013777Y-67972952D01*
X149061396Y-68020571D01*
X149109015Y-68115810D01*
X149109015Y-68353905D01*
X149061396Y-68449143D01*
X149013777Y-68496762D01*
X148918539Y-68544381D01*
X148632824Y-68544381D01*
X148537586Y-68496762D01*
X148489967Y-68449143D01*
X144219634Y-67941143D02*
X144172015Y-67988762D01*
X144029158Y-68036381D01*
X143933920Y-68036381D01*
X143791062Y-67988762D01*
X143695824Y-67893524D01*
X143648205Y-67798286D01*
X143600586Y-67607810D01*
X143600586Y-67464952D01*
X143648205Y-67274476D01*
X143695824Y-67179238D01*
X143791062Y-67084000D01*
X143933920Y-67036381D01*
X144029158Y-67036381D01*
X144172015Y-67084000D01*
X144219634Y-67131619D01*
X145076777Y-67369714D02*
X145076777Y-68036381D01*
X144838681Y-66988762D02*
X144600586Y-67703048D01*
X145219634Y-67703048D01*
X142243681Y-64451190D02*
X141243681Y-64451190D01*
X142148443Y-63403571D02*
X142196062Y-63451190D01*
X142243681Y-63594047D01*
X142243681Y-63689285D01*
X142196062Y-63832143D01*
X142100824Y-63927381D01*
X142005586Y-63975000D01*
X141815110Y-64022619D01*
X141672252Y-64022619D01*
X141481776Y-63975000D01*
X141386538Y-63927381D01*
X141291300Y-63832143D01*
X141243681Y-63689285D01*
X141243681Y-63594047D01*
X141291300Y-63451190D01*
X141338919Y-63403571D01*
X142243681Y-62451190D02*
X142243681Y-63022619D01*
X142243681Y-62736905D02*
X141243681Y-62736905D01*
X141386538Y-62832143D01*
X141481776Y-62927381D01*
X141529395Y-63022619D01*
X127961562Y-66738333D02*
X128009181Y-66595476D01*
X128009181Y-66357380D01*
X127961562Y-66262142D01*
X127913943Y-66214523D01*
X127818705Y-66166904D01*
X127723467Y-66166904D01*
X127628229Y-66214523D01*
X127580610Y-66262142D01*
X127532990Y-66357380D01*
X127485371Y-66547857D01*
X127437752Y-66643095D01*
X127390133Y-66690714D01*
X127294895Y-66738333D01*
X127199657Y-66738333D01*
X127104419Y-66690714D01*
X127056800Y-66643095D01*
X127009181Y-66547857D01*
X127009181Y-66309761D01*
X127056800Y-66166904D01*
X127009181Y-65833571D02*
X128009181Y-65595476D01*
X127294895Y-65404999D01*
X128009181Y-65214523D01*
X127009181Y-64976428D01*
X127104419Y-64643095D02*
X127056800Y-64595476D01*
X127009181Y-64500238D01*
X127009181Y-64262142D01*
X127056800Y-64166904D01*
X127104419Y-64119285D01*
X127199657Y-64071666D01*
X127294895Y-64071666D01*
X127437752Y-64119285D01*
X128009181Y-64690714D01*
X128009181Y-64071666D01*
X148983867Y-89852862D02*
X149126724Y-89900481D01*
X149364820Y-89900481D01*
X149460058Y-89852862D01*
X149507677Y-89805243D01*
X149555296Y-89710005D01*
X149555296Y-89614767D01*
X149507677Y-89519529D01*
X149460058Y-89471910D01*
X149364820Y-89424290D01*
X149174343Y-89376671D01*
X149079105Y-89329052D01*
X149031486Y-89281433D01*
X148983867Y-89186195D01*
X148983867Y-89090957D01*
X149031486Y-88995719D01*
X149079105Y-88948100D01*
X149174343Y-88900481D01*
X149412439Y-88900481D01*
X149555296Y-88948100D01*
X149888629Y-88900481D02*
X150126724Y-89900481D01*
X150317201Y-89186195D01*
X150507677Y-89900481D01*
X150745772Y-88900481D01*
X151650534Y-89900481D02*
X151079105Y-89900481D01*
X151364819Y-89900481D02*
X151364819Y-88900481D01*
X151269581Y-89043338D01*
X151174343Y-89138576D01*
X151079105Y-89186195D01*
M02*
