G04 #@! TF.FileFunction,Copper,L2,Bot,Signal*
%FSLAX46Y46*%
G04 Gerber Fmt 4.6, Leading zero omitted, Abs format (unit mm)*
G04 Created by KiCad (PCBNEW 4.0.7) date Wed Apr  4 13:04:03 2018*
%MOMM*%
%LPD*%
G01*
G04 APERTURE LIST*
%ADD10C,0.100000*%
%ADD11R,1.700000X1.700000*%
%ADD12O,1.700000X1.700000*%
%ADD13C,3.500000*%
%ADD14C,0.600000*%
%ADD15C,0.250000*%
%ADD16C,0.500000*%
%ADD17C,0.254000*%
G04 APERTURE END LIST*
D10*
D11*
X119418100Y-91338400D03*
D12*
X119418100Y-88798400D03*
X119418100Y-86258400D03*
D11*
X119380000Y-63500000D03*
D12*
X119380000Y-66040000D03*
X119380000Y-68580000D03*
X119380000Y-71120000D03*
X119380000Y-73660000D03*
X119380000Y-76200000D03*
X119380000Y-78740000D03*
X119380000Y-81280000D03*
D11*
X151638000Y-63500000D03*
D12*
X151638000Y-66040000D03*
X151638000Y-68580000D03*
X151638000Y-71120000D03*
X151638000Y-73660000D03*
X151638000Y-76200000D03*
X151638000Y-78740000D03*
X151638000Y-81280000D03*
D13*
X136144000Y-80010000D03*
D11*
X130670300Y-62865000D03*
D12*
X130670300Y-65405000D03*
X133210300Y-62865000D03*
X133210300Y-65405000D03*
X135750300Y-62865000D03*
X135750300Y-65405000D03*
X138290300Y-62865000D03*
X138290300Y-65405000D03*
X140830300Y-62865000D03*
X140830300Y-65405000D03*
D14*
X123685300Y-79375000D03*
X123812300Y-81788000D03*
X142227300Y-67818000D03*
X148704300Y-70993000D03*
X132702300Y-59055000D03*
X128765300Y-59055000D03*
X125082300Y-59055000D03*
X122542300Y-90805000D03*
X122542300Y-93345000D03*
X125082300Y-93345000D03*
X125082300Y-90805000D03*
X141592300Y-76835000D03*
X137782300Y-74295000D03*
X133972300Y-74295000D03*
X131432300Y-76835000D03*
X130162300Y-79375000D03*
X130162300Y-81915000D03*
X131432300Y-86995000D03*
X131432300Y-84455000D03*
X133972300Y-84455000D03*
X133972300Y-86995000D03*
X136512300Y-86995000D03*
X136512300Y-84455000D03*
X139052300Y-84455000D03*
X139052300Y-86995000D03*
X141592300Y-79375000D03*
X141592300Y-81915000D03*
X141592300Y-84455000D03*
X141592300Y-86995000D03*
X149504400Y-81305400D03*
X149110700Y-88061800D03*
X141592300Y-59055000D03*
X137782300Y-59055000D03*
X125082300Y-61595000D03*
X148069300Y-85217000D03*
X148958300Y-80137000D03*
X146659600Y-85255100D03*
X146672300Y-90017600D03*
X122859800Y-76809600D03*
X122847100Y-69608700D03*
X123482100Y-71945500D03*
X124510800Y-77241400D03*
X122047000Y-75018900D03*
X124421900Y-85356700D03*
X147053300Y-80137000D03*
X147180300Y-75057000D03*
X147180300Y-73533000D03*
X147815300Y-74295000D03*
X123355100Y-86525100D03*
D15*
X123685300Y-79375000D02*
X123985299Y-79674999D01*
X123985299Y-79674999D02*
X129862301Y-79674999D01*
X129862301Y-79674999D02*
X130162300Y-79375000D01*
X130162300Y-81915000D02*
X123939300Y-81915000D01*
X123939300Y-81915000D02*
X123812300Y-81788000D01*
X148704300Y-70993000D02*
X145402300Y-70993000D01*
X145402300Y-70993000D02*
X142227300Y-67818000D01*
X149804399Y-78951099D02*
X148704300Y-77851000D01*
X148704300Y-77851000D02*
X148704300Y-70993000D01*
X149504400Y-81305400D02*
X149804399Y-81005401D01*
X149804399Y-81005401D02*
X149804399Y-78951099D01*
X128765300Y-59055000D02*
X132702300Y-59055000D01*
X137020300Y-61468000D02*
X137020300Y-64135000D01*
X137020300Y-64135000D02*
X135750300Y-65405000D01*
X137782300Y-60706000D02*
X137020300Y-61468000D01*
X137782300Y-59055000D02*
X137782300Y-60706000D01*
X122542300Y-93345000D02*
X122542300Y-90805000D01*
X125082300Y-90805000D02*
X125082300Y-93345000D01*
X140322300Y-76835000D02*
X141592300Y-76835000D01*
X137782300Y-74295000D02*
X140322300Y-76835000D01*
X131432300Y-76835000D02*
X133972300Y-74295000D01*
X130162300Y-81915000D02*
X130162300Y-79375000D01*
X131432300Y-84455000D02*
X131432300Y-86995000D01*
X133972300Y-86995000D02*
X133972300Y-84455000D01*
X136512300Y-84455000D02*
X136512300Y-86995000D01*
X139052300Y-86995000D02*
X139052300Y-84455000D01*
X141592300Y-81915000D02*
X141592300Y-79375000D01*
X141592300Y-86995000D02*
X141592300Y-84455000D01*
X149110700Y-88061800D02*
X149504400Y-87668100D01*
X149504400Y-87668100D02*
X149504400Y-81305400D01*
X137782300Y-59055000D02*
X141592300Y-59055000D01*
X125082300Y-61595000D02*
X125082300Y-59055000D01*
D16*
X148196300Y-80474736D02*
X148196300Y-85090000D01*
D15*
X148196300Y-85090000D02*
X148069300Y-85217000D01*
D16*
X148958300Y-80137000D02*
X148534036Y-80137000D01*
X148534036Y-80137000D02*
X148196300Y-80474736D01*
D15*
X146672300Y-90017600D02*
X146672300Y-85267800D01*
X146672300Y-85267800D02*
X146659600Y-85255100D01*
X122847100Y-76474236D02*
X122847100Y-76796900D01*
X122847100Y-76796900D02*
X122859800Y-76809600D01*
X122847100Y-76474236D02*
X122847100Y-69608700D01*
X124510800Y-77241400D02*
X123482100Y-76212700D01*
X123482100Y-76212700D02*
X123482100Y-71945500D01*
X124421900Y-85356700D02*
X122047000Y-82981800D01*
X122047000Y-82981800D02*
X122047000Y-75018900D01*
X141363700Y-65836800D02*
X140931900Y-65405000D01*
X128892300Y-69850000D02*
X128892300Y-63543000D01*
X128892300Y-63543000D02*
X129570300Y-62865000D01*
X129570300Y-62865000D02*
X130670300Y-62865000D01*
X131940300Y-72898000D02*
X128892300Y-69850000D01*
X137655300Y-72898000D02*
X131940300Y-72898000D01*
X140449300Y-75692000D02*
X137655300Y-72898000D01*
X142735300Y-75692000D02*
X140449300Y-75692000D01*
X142862300Y-75819000D02*
X142735300Y-75692000D01*
X142862300Y-80010000D02*
X142862300Y-75819000D01*
X142989300Y-80137000D02*
X142862300Y-80010000D01*
X147053300Y-80137000D02*
X142989300Y-80137000D01*
X130670300Y-66607081D02*
X130670300Y-65405000D01*
X130670300Y-70231000D02*
X130670300Y-66607081D01*
X132644311Y-72205011D02*
X130670300Y-70231000D01*
X137725721Y-72205011D02*
X132644311Y-72205011D01*
X140577710Y-75057000D02*
X137725721Y-72205011D01*
X147180300Y-75057000D02*
X140577710Y-75057000D01*
X147180300Y-73533000D02*
X140957300Y-73533000D01*
X134480300Y-64135000D02*
X133210300Y-62865000D01*
X140957300Y-73533000D02*
X138544300Y-71120000D01*
X134480300Y-70993000D02*
X134480300Y-64135000D01*
X138544300Y-71120000D02*
X134607300Y-71120000D01*
X134607300Y-71120000D02*
X134480300Y-70993000D01*
X133464300Y-71755000D02*
X133210300Y-71501000D01*
X133210300Y-71501000D02*
X133210300Y-65405000D01*
X138417300Y-71755000D02*
X133464300Y-71755000D01*
X140957300Y-74295000D02*
X138417300Y-71755000D01*
X147815300Y-74295000D02*
X140957300Y-74295000D01*
X121170700Y-83916436D02*
X121170700Y-64190700D01*
X121170700Y-64190700D02*
X120480000Y-63500000D01*
X120480000Y-63500000D02*
X119380000Y-63500000D01*
X123355100Y-86525100D02*
X123355100Y-86100836D01*
X123355100Y-86100836D02*
X121170700Y-83916436D01*
D17*
G36*
X152833000Y-57415001D02*
X152833000Y-59080400D01*
X152845674Y-59144114D01*
X152844645Y-62125145D01*
X152739890Y-62053569D01*
X152488000Y-62002560D01*
X150788000Y-62002560D01*
X150552683Y-62046838D01*
X150336559Y-62185910D01*
X150191569Y-62398110D01*
X150140560Y-62650000D01*
X150140560Y-64350000D01*
X150184838Y-64585317D01*
X150323910Y-64801441D01*
X150536110Y-64946431D01*
X150603541Y-64960086D01*
X150558853Y-64989946D01*
X150236946Y-65471715D01*
X150123907Y-66040000D01*
X150236946Y-66608285D01*
X150558853Y-67090054D01*
X150888026Y-67310000D01*
X150558853Y-67529946D01*
X150236946Y-68011715D01*
X150123907Y-68580000D01*
X150236946Y-69148285D01*
X150558853Y-69630054D01*
X150888026Y-69850000D01*
X150558853Y-70069946D01*
X150236946Y-70551715D01*
X150123907Y-71120000D01*
X150236946Y-71688285D01*
X150558853Y-72170054D01*
X150888026Y-72390000D01*
X150558853Y-72609946D01*
X150236946Y-73091715D01*
X150123907Y-73660000D01*
X150236946Y-74228285D01*
X150558853Y-74710054D01*
X150888026Y-74930000D01*
X150558853Y-75149946D01*
X150236946Y-75631715D01*
X150123907Y-76200000D01*
X150236946Y-76768285D01*
X150558853Y-77250054D01*
X150888026Y-77470000D01*
X150558853Y-77689946D01*
X150236946Y-78171715D01*
X150123907Y-78740000D01*
X150236946Y-79308285D01*
X150558853Y-79790054D01*
X151040622Y-80111961D01*
X151608907Y-80225000D01*
X151667093Y-80225000D01*
X152235378Y-80111961D01*
X152717147Y-79790054D01*
X152838612Y-79608268D01*
X152833245Y-95162300D01*
X145211800Y-95162300D01*
X145211800Y-89141300D01*
X145201794Y-89091890D01*
X145173353Y-89050265D01*
X145130959Y-89022985D01*
X145085239Y-89014301D01*
X126733739Y-88950801D01*
X126684295Y-88960636D01*
X126642572Y-88988932D01*
X126615146Y-89031232D01*
X126606300Y-89077800D01*
X126606300Y-95162300D01*
X118133936Y-95162300D01*
X118131844Y-89538492D01*
X118338953Y-89848454D01*
X118820722Y-90170361D01*
X119389007Y-90283400D01*
X119447193Y-90283400D01*
X120015478Y-90170361D01*
X120497247Y-89848454D01*
X120819154Y-89366685D01*
X120932193Y-88798400D01*
X120819154Y-88230115D01*
X120497247Y-87748346D01*
X120168074Y-87528400D01*
X120497247Y-87308454D01*
X120819154Y-86826685D01*
X120932193Y-86258400D01*
X120819154Y-85690115D01*
X120497247Y-85208346D01*
X120015478Y-84886439D01*
X119447193Y-84773400D01*
X119389007Y-84773400D01*
X118820722Y-84886439D01*
X118338953Y-85208346D01*
X118130349Y-85520545D01*
X118129066Y-82072957D01*
X118300853Y-82330054D01*
X118782622Y-82651961D01*
X119350907Y-82765000D01*
X119409093Y-82765000D01*
X119977378Y-82651961D01*
X120410700Y-82362425D01*
X120410700Y-83916436D01*
X120468552Y-84207275D01*
X120633299Y-84453837D01*
X122448869Y-86269407D01*
X122420262Y-86338301D01*
X122419938Y-86710267D01*
X122561983Y-87054043D01*
X122824773Y-87317292D01*
X123168301Y-87459938D01*
X123540267Y-87460262D01*
X123884043Y-87318217D01*
X124147292Y-87055427D01*
X124289938Y-86711899D01*
X124290262Y-86339933D01*
X124270278Y-86291569D01*
X124607067Y-86291862D01*
X124950843Y-86149817D01*
X125214092Y-85887027D01*
X125356738Y-85543499D01*
X125357062Y-85171533D01*
X125215017Y-84827757D01*
X124952227Y-84564508D01*
X124608699Y-84421862D01*
X124561823Y-84421821D01*
X122807000Y-82666998D01*
X122807000Y-77744555D01*
X123044967Y-77744762D01*
X123388743Y-77602717D01*
X123575647Y-77416139D01*
X123575638Y-77426567D01*
X123717683Y-77770343D01*
X123980473Y-78033592D01*
X124324001Y-78176238D01*
X124695967Y-78176562D01*
X125039743Y-78034517D01*
X125302992Y-77771727D01*
X125445638Y-77428199D01*
X125445962Y-77056233D01*
X125303917Y-76712457D01*
X125041127Y-76449208D01*
X124697599Y-76306562D01*
X124650724Y-76306521D01*
X124242100Y-75897898D01*
X124242100Y-72507963D01*
X124274292Y-72475827D01*
X124416938Y-72132299D01*
X124417262Y-71760333D01*
X124275217Y-71416557D01*
X124012427Y-71153308D01*
X123668899Y-71010662D01*
X123607100Y-71010608D01*
X123607100Y-70171163D01*
X123639292Y-70139027D01*
X123781938Y-69795499D01*
X123782262Y-69423533D01*
X123640217Y-69079757D01*
X123377427Y-68816508D01*
X123033899Y-68673862D01*
X122661933Y-68673538D01*
X122318157Y-68815583D01*
X122054908Y-69078373D01*
X121930700Y-69377498D01*
X121930700Y-64190700D01*
X121925875Y-64166441D01*
X121872848Y-63899860D01*
X121708101Y-63653299D01*
X121597802Y-63543000D01*
X128132300Y-63543000D01*
X128132300Y-69850000D01*
X128190152Y-70140839D01*
X128354899Y-70387401D01*
X131402899Y-73435401D01*
X131649461Y-73600148D01*
X131940300Y-73658000D01*
X137340498Y-73658000D01*
X139911899Y-76229401D01*
X140158461Y-76394148D01*
X140449300Y-76452000D01*
X142102300Y-76452000D01*
X142102300Y-80010000D01*
X142160152Y-80300839D01*
X142324899Y-80547401D01*
X142451899Y-80674401D01*
X142698461Y-80839148D01*
X142989300Y-80897000D01*
X146490837Y-80897000D01*
X146522973Y-80929192D01*
X146866501Y-81071838D01*
X147238467Y-81072162D01*
X147311300Y-81042068D01*
X147311300Y-84584493D01*
X147189927Y-84462908D01*
X146846399Y-84320262D01*
X146474433Y-84319938D01*
X146130657Y-84461983D01*
X145867408Y-84724773D01*
X145724762Y-85068301D01*
X145724438Y-85440267D01*
X145866483Y-85784043D01*
X145912300Y-85829940D01*
X145912300Y-89455137D01*
X145880108Y-89487273D01*
X145737462Y-89830801D01*
X145737138Y-90202767D01*
X145879183Y-90546543D01*
X146141973Y-90809792D01*
X146485501Y-90952438D01*
X146857467Y-90952762D01*
X147201243Y-90810717D01*
X147464492Y-90547927D01*
X147607138Y-90204399D01*
X147607462Y-89832433D01*
X147465417Y-89488657D01*
X147432300Y-89455482D01*
X147432300Y-85902333D01*
X147538973Y-86009192D01*
X147882501Y-86151838D01*
X148254467Y-86152162D01*
X148598243Y-86010117D01*
X148861492Y-85747327D01*
X148960771Y-85508238D01*
X149013933Y-85428675D01*
X149081300Y-85090000D01*
X149081300Y-81072108D01*
X149143467Y-81072162D01*
X149487243Y-80930117D01*
X149750492Y-80667327D01*
X149893138Y-80323799D01*
X149893462Y-79951833D01*
X149751417Y-79608057D01*
X149488627Y-79344808D01*
X149145099Y-79202162D01*
X148773133Y-79201838D01*
X148651731Y-79252000D01*
X148534041Y-79252000D01*
X148534036Y-79251999D01*
X148251552Y-79308190D01*
X148195361Y-79319367D01*
X147908246Y-79511210D01*
X147908244Y-79511213D01*
X147828924Y-79590533D01*
X147583627Y-79344808D01*
X147240099Y-79202162D01*
X146868133Y-79201838D01*
X146524357Y-79343883D01*
X146491182Y-79377000D01*
X143622300Y-79377000D01*
X143622300Y-75819000D01*
X143621902Y-75817000D01*
X146617837Y-75817000D01*
X146649973Y-75849192D01*
X146993501Y-75991838D01*
X147365467Y-75992162D01*
X147709243Y-75850117D01*
X147972492Y-75587327D01*
X148115138Y-75243799D01*
X148115191Y-75182759D01*
X148344243Y-75088117D01*
X148607492Y-74825327D01*
X148750138Y-74481799D01*
X148750462Y-74109833D01*
X148608417Y-73766057D01*
X148345627Y-73502808D01*
X148115410Y-73407213D01*
X148115462Y-73347833D01*
X147973417Y-73004057D01*
X147710627Y-72740808D01*
X147367099Y-72598162D01*
X146995133Y-72597838D01*
X146651357Y-72739883D01*
X146618182Y-72773000D01*
X141272102Y-72773000D01*
X139081701Y-70582599D01*
X138835139Y-70417852D01*
X138544300Y-70360000D01*
X135240300Y-70360000D01*
X135240300Y-64277648D01*
X135750300Y-64379093D01*
X136318585Y-64266054D01*
X136800354Y-63944147D01*
X137020300Y-63614974D01*
X137240246Y-63944147D01*
X137525878Y-64135000D01*
X137240246Y-64325853D01*
X136918339Y-64807622D01*
X136805300Y-65375907D01*
X136805300Y-65434093D01*
X136918339Y-66002378D01*
X137240246Y-66484147D01*
X137722015Y-66806054D01*
X138290300Y-66919093D01*
X138858585Y-66806054D01*
X139340354Y-66484147D01*
X139560300Y-66154974D01*
X139780246Y-66484147D01*
X140262015Y-66806054D01*
X140830300Y-66919093D01*
X141398585Y-66806054D01*
X141880354Y-66484147D01*
X142202261Y-66002378D01*
X142315300Y-65434093D01*
X142315300Y-65375907D01*
X142202261Y-64807622D01*
X141880354Y-64325853D01*
X141594722Y-64135000D01*
X141880354Y-63944147D01*
X142202261Y-63462378D01*
X142315300Y-62894093D01*
X142315300Y-62835907D01*
X142202261Y-62267622D01*
X141880354Y-61785853D01*
X141398585Y-61463946D01*
X140830300Y-61350907D01*
X140262015Y-61463946D01*
X139780246Y-61785853D01*
X139560300Y-62115026D01*
X139340354Y-61785853D01*
X138858585Y-61463946D01*
X138290300Y-61350907D01*
X137722015Y-61463946D01*
X137240246Y-61785853D01*
X137020300Y-62115026D01*
X136800354Y-61785853D01*
X136318585Y-61463946D01*
X135750300Y-61350907D01*
X135182015Y-61463946D01*
X134700246Y-61785853D01*
X134480300Y-62115026D01*
X134260354Y-61785853D01*
X133778585Y-61463946D01*
X133210300Y-61350907D01*
X132642015Y-61463946D01*
X132160246Y-61785853D01*
X132132450Y-61827452D01*
X132123462Y-61779683D01*
X131984390Y-61563559D01*
X131772190Y-61418569D01*
X131520300Y-61367560D01*
X129820300Y-61367560D01*
X129584983Y-61411838D01*
X129368859Y-61550910D01*
X129223869Y-61763110D01*
X129172860Y-62015000D01*
X129172860Y-62234080D01*
X129032899Y-62327599D01*
X128354899Y-63005599D01*
X128190152Y-63252161D01*
X128132300Y-63543000D01*
X121597802Y-63543000D01*
X121017401Y-62962599D01*
X120877440Y-62869080D01*
X120877440Y-62650000D01*
X120833162Y-62414683D01*
X120694090Y-62198559D01*
X120481890Y-62053569D01*
X120230000Y-62002560D01*
X118530000Y-62002560D01*
X118294683Y-62046838D01*
X118121658Y-62158177D01*
X118121500Y-61734436D01*
X118121500Y-59080400D01*
X118108800Y-59016553D01*
X118108800Y-57390599D01*
X152833000Y-57415001D01*
X152833000Y-57415001D01*
G37*
X152833000Y-57415001D02*
X152833000Y-59080400D01*
X152845674Y-59144114D01*
X152844645Y-62125145D01*
X152739890Y-62053569D01*
X152488000Y-62002560D01*
X150788000Y-62002560D01*
X150552683Y-62046838D01*
X150336559Y-62185910D01*
X150191569Y-62398110D01*
X150140560Y-62650000D01*
X150140560Y-64350000D01*
X150184838Y-64585317D01*
X150323910Y-64801441D01*
X150536110Y-64946431D01*
X150603541Y-64960086D01*
X150558853Y-64989946D01*
X150236946Y-65471715D01*
X150123907Y-66040000D01*
X150236946Y-66608285D01*
X150558853Y-67090054D01*
X150888026Y-67310000D01*
X150558853Y-67529946D01*
X150236946Y-68011715D01*
X150123907Y-68580000D01*
X150236946Y-69148285D01*
X150558853Y-69630054D01*
X150888026Y-69850000D01*
X150558853Y-70069946D01*
X150236946Y-70551715D01*
X150123907Y-71120000D01*
X150236946Y-71688285D01*
X150558853Y-72170054D01*
X150888026Y-72390000D01*
X150558853Y-72609946D01*
X150236946Y-73091715D01*
X150123907Y-73660000D01*
X150236946Y-74228285D01*
X150558853Y-74710054D01*
X150888026Y-74930000D01*
X150558853Y-75149946D01*
X150236946Y-75631715D01*
X150123907Y-76200000D01*
X150236946Y-76768285D01*
X150558853Y-77250054D01*
X150888026Y-77470000D01*
X150558853Y-77689946D01*
X150236946Y-78171715D01*
X150123907Y-78740000D01*
X150236946Y-79308285D01*
X150558853Y-79790054D01*
X151040622Y-80111961D01*
X151608907Y-80225000D01*
X151667093Y-80225000D01*
X152235378Y-80111961D01*
X152717147Y-79790054D01*
X152838612Y-79608268D01*
X152833245Y-95162300D01*
X145211800Y-95162300D01*
X145211800Y-89141300D01*
X145201794Y-89091890D01*
X145173353Y-89050265D01*
X145130959Y-89022985D01*
X145085239Y-89014301D01*
X126733739Y-88950801D01*
X126684295Y-88960636D01*
X126642572Y-88988932D01*
X126615146Y-89031232D01*
X126606300Y-89077800D01*
X126606300Y-95162300D01*
X118133936Y-95162300D01*
X118131844Y-89538492D01*
X118338953Y-89848454D01*
X118820722Y-90170361D01*
X119389007Y-90283400D01*
X119447193Y-90283400D01*
X120015478Y-90170361D01*
X120497247Y-89848454D01*
X120819154Y-89366685D01*
X120932193Y-88798400D01*
X120819154Y-88230115D01*
X120497247Y-87748346D01*
X120168074Y-87528400D01*
X120497247Y-87308454D01*
X120819154Y-86826685D01*
X120932193Y-86258400D01*
X120819154Y-85690115D01*
X120497247Y-85208346D01*
X120015478Y-84886439D01*
X119447193Y-84773400D01*
X119389007Y-84773400D01*
X118820722Y-84886439D01*
X118338953Y-85208346D01*
X118130349Y-85520545D01*
X118129066Y-82072957D01*
X118300853Y-82330054D01*
X118782622Y-82651961D01*
X119350907Y-82765000D01*
X119409093Y-82765000D01*
X119977378Y-82651961D01*
X120410700Y-82362425D01*
X120410700Y-83916436D01*
X120468552Y-84207275D01*
X120633299Y-84453837D01*
X122448869Y-86269407D01*
X122420262Y-86338301D01*
X122419938Y-86710267D01*
X122561983Y-87054043D01*
X122824773Y-87317292D01*
X123168301Y-87459938D01*
X123540267Y-87460262D01*
X123884043Y-87318217D01*
X124147292Y-87055427D01*
X124289938Y-86711899D01*
X124290262Y-86339933D01*
X124270278Y-86291569D01*
X124607067Y-86291862D01*
X124950843Y-86149817D01*
X125214092Y-85887027D01*
X125356738Y-85543499D01*
X125357062Y-85171533D01*
X125215017Y-84827757D01*
X124952227Y-84564508D01*
X124608699Y-84421862D01*
X124561823Y-84421821D01*
X122807000Y-82666998D01*
X122807000Y-77744555D01*
X123044967Y-77744762D01*
X123388743Y-77602717D01*
X123575647Y-77416139D01*
X123575638Y-77426567D01*
X123717683Y-77770343D01*
X123980473Y-78033592D01*
X124324001Y-78176238D01*
X124695967Y-78176562D01*
X125039743Y-78034517D01*
X125302992Y-77771727D01*
X125445638Y-77428199D01*
X125445962Y-77056233D01*
X125303917Y-76712457D01*
X125041127Y-76449208D01*
X124697599Y-76306562D01*
X124650724Y-76306521D01*
X124242100Y-75897898D01*
X124242100Y-72507963D01*
X124274292Y-72475827D01*
X124416938Y-72132299D01*
X124417262Y-71760333D01*
X124275217Y-71416557D01*
X124012427Y-71153308D01*
X123668899Y-71010662D01*
X123607100Y-71010608D01*
X123607100Y-70171163D01*
X123639292Y-70139027D01*
X123781938Y-69795499D01*
X123782262Y-69423533D01*
X123640217Y-69079757D01*
X123377427Y-68816508D01*
X123033899Y-68673862D01*
X122661933Y-68673538D01*
X122318157Y-68815583D01*
X122054908Y-69078373D01*
X121930700Y-69377498D01*
X121930700Y-64190700D01*
X121925875Y-64166441D01*
X121872848Y-63899860D01*
X121708101Y-63653299D01*
X121597802Y-63543000D01*
X128132300Y-63543000D01*
X128132300Y-69850000D01*
X128190152Y-70140839D01*
X128354899Y-70387401D01*
X131402899Y-73435401D01*
X131649461Y-73600148D01*
X131940300Y-73658000D01*
X137340498Y-73658000D01*
X139911899Y-76229401D01*
X140158461Y-76394148D01*
X140449300Y-76452000D01*
X142102300Y-76452000D01*
X142102300Y-80010000D01*
X142160152Y-80300839D01*
X142324899Y-80547401D01*
X142451899Y-80674401D01*
X142698461Y-80839148D01*
X142989300Y-80897000D01*
X146490837Y-80897000D01*
X146522973Y-80929192D01*
X146866501Y-81071838D01*
X147238467Y-81072162D01*
X147311300Y-81042068D01*
X147311300Y-84584493D01*
X147189927Y-84462908D01*
X146846399Y-84320262D01*
X146474433Y-84319938D01*
X146130657Y-84461983D01*
X145867408Y-84724773D01*
X145724762Y-85068301D01*
X145724438Y-85440267D01*
X145866483Y-85784043D01*
X145912300Y-85829940D01*
X145912300Y-89455137D01*
X145880108Y-89487273D01*
X145737462Y-89830801D01*
X145737138Y-90202767D01*
X145879183Y-90546543D01*
X146141973Y-90809792D01*
X146485501Y-90952438D01*
X146857467Y-90952762D01*
X147201243Y-90810717D01*
X147464492Y-90547927D01*
X147607138Y-90204399D01*
X147607462Y-89832433D01*
X147465417Y-89488657D01*
X147432300Y-89455482D01*
X147432300Y-85902333D01*
X147538973Y-86009192D01*
X147882501Y-86151838D01*
X148254467Y-86152162D01*
X148598243Y-86010117D01*
X148861492Y-85747327D01*
X148960771Y-85508238D01*
X149013933Y-85428675D01*
X149081300Y-85090000D01*
X149081300Y-81072108D01*
X149143467Y-81072162D01*
X149487243Y-80930117D01*
X149750492Y-80667327D01*
X149893138Y-80323799D01*
X149893462Y-79951833D01*
X149751417Y-79608057D01*
X149488627Y-79344808D01*
X149145099Y-79202162D01*
X148773133Y-79201838D01*
X148651731Y-79252000D01*
X148534041Y-79252000D01*
X148534036Y-79251999D01*
X148251552Y-79308190D01*
X148195361Y-79319367D01*
X147908246Y-79511210D01*
X147908244Y-79511213D01*
X147828924Y-79590533D01*
X147583627Y-79344808D01*
X147240099Y-79202162D01*
X146868133Y-79201838D01*
X146524357Y-79343883D01*
X146491182Y-79377000D01*
X143622300Y-79377000D01*
X143622300Y-75819000D01*
X143621902Y-75817000D01*
X146617837Y-75817000D01*
X146649973Y-75849192D01*
X146993501Y-75991838D01*
X147365467Y-75992162D01*
X147709243Y-75850117D01*
X147972492Y-75587327D01*
X148115138Y-75243799D01*
X148115191Y-75182759D01*
X148344243Y-75088117D01*
X148607492Y-74825327D01*
X148750138Y-74481799D01*
X148750462Y-74109833D01*
X148608417Y-73766057D01*
X148345627Y-73502808D01*
X148115410Y-73407213D01*
X148115462Y-73347833D01*
X147973417Y-73004057D01*
X147710627Y-72740808D01*
X147367099Y-72598162D01*
X146995133Y-72597838D01*
X146651357Y-72739883D01*
X146618182Y-72773000D01*
X141272102Y-72773000D01*
X139081701Y-70582599D01*
X138835139Y-70417852D01*
X138544300Y-70360000D01*
X135240300Y-70360000D01*
X135240300Y-64277648D01*
X135750300Y-64379093D01*
X136318585Y-64266054D01*
X136800354Y-63944147D01*
X137020300Y-63614974D01*
X137240246Y-63944147D01*
X137525878Y-64135000D01*
X137240246Y-64325853D01*
X136918339Y-64807622D01*
X136805300Y-65375907D01*
X136805300Y-65434093D01*
X136918339Y-66002378D01*
X137240246Y-66484147D01*
X137722015Y-66806054D01*
X138290300Y-66919093D01*
X138858585Y-66806054D01*
X139340354Y-66484147D01*
X139560300Y-66154974D01*
X139780246Y-66484147D01*
X140262015Y-66806054D01*
X140830300Y-66919093D01*
X141398585Y-66806054D01*
X141880354Y-66484147D01*
X142202261Y-66002378D01*
X142315300Y-65434093D01*
X142315300Y-65375907D01*
X142202261Y-64807622D01*
X141880354Y-64325853D01*
X141594722Y-64135000D01*
X141880354Y-63944147D01*
X142202261Y-63462378D01*
X142315300Y-62894093D01*
X142315300Y-62835907D01*
X142202261Y-62267622D01*
X141880354Y-61785853D01*
X141398585Y-61463946D01*
X140830300Y-61350907D01*
X140262015Y-61463946D01*
X139780246Y-61785853D01*
X139560300Y-62115026D01*
X139340354Y-61785853D01*
X138858585Y-61463946D01*
X138290300Y-61350907D01*
X137722015Y-61463946D01*
X137240246Y-61785853D01*
X137020300Y-62115026D01*
X136800354Y-61785853D01*
X136318585Y-61463946D01*
X135750300Y-61350907D01*
X135182015Y-61463946D01*
X134700246Y-61785853D01*
X134480300Y-62115026D01*
X134260354Y-61785853D01*
X133778585Y-61463946D01*
X133210300Y-61350907D01*
X132642015Y-61463946D01*
X132160246Y-61785853D01*
X132132450Y-61827452D01*
X132123462Y-61779683D01*
X131984390Y-61563559D01*
X131772190Y-61418569D01*
X131520300Y-61367560D01*
X129820300Y-61367560D01*
X129584983Y-61411838D01*
X129368859Y-61550910D01*
X129223869Y-61763110D01*
X129172860Y-62015000D01*
X129172860Y-62234080D01*
X129032899Y-62327599D01*
X128354899Y-63005599D01*
X128190152Y-63252161D01*
X128132300Y-63543000D01*
X121597802Y-63543000D01*
X121017401Y-62962599D01*
X120877440Y-62869080D01*
X120877440Y-62650000D01*
X120833162Y-62414683D01*
X120694090Y-62198559D01*
X120481890Y-62053569D01*
X120230000Y-62002560D01*
X118530000Y-62002560D01*
X118294683Y-62046838D01*
X118121658Y-62158177D01*
X118121500Y-61734436D01*
X118121500Y-59080400D01*
X118108800Y-59016553D01*
X118108800Y-57390599D01*
X152833000Y-57415001D01*
M02*
